<svg width="206" height="53" viewBox="0 0 206 53" fill="none" xmlns="http://www.w3.org/2000/svg">
<path fill-rule="evenodd" clip-rule="evenodd" d="M68.3333 33.0585C67.7377 36.0731 65.6026 39.3333 60.2102 39.3333C54.5725 39.3333 51.6666 35.4417 51.6666 29.9737C51.6666 24.6088 54.9229 20.3333 60.4544 20.3333C66.5475 20.3333 68.2632 24.7501 68.3333 26.7836H63.4644C63.149 25.3114 62.3082 24.2941 60.3483 24.2941C58.0369 24.2941 56.7416 26.2925 56.7416 29.7983C56.7416 33.6899 58.142 35.4417 60.3132 35.4417C62.065 35.4417 62.9739 34.4255 63.4293 33.0585H68.3333Z" fill="#0E436E"/>
<path d="M69 18.1044V13.6667H74V18.1095L69 18.1044ZM69 21.02H74V39H69V21.02Z" fill="#0E436E"/>
<path fill-rule="evenodd" clip-rule="evenodd" d="M75.701 25.9589C75.701 24.1602 75.701 22.5997 75.6667 21.0819H80.5029C80.5715 21.4972 80.6402 23.2614 80.6402 24.2294C81.4285 22.1935 83.3152 20.7022 86.3334 20.6666V25.4052C82.766 25.3034 80.6402 26.2694 80.6402 31.181V38.9999H75.701V25.9589Z" fill="#0E436E"/>
<path fill-rule="evenodd" clip-rule="evenodd" d="M102 33.0585C101.404 36.0731 99.2693 39.3333 93.8769 39.3333C88.2392 39.3333 85.3333 35.4417 85.3333 29.9737C85.3333 24.6088 88.5896 20.3333 94.1221 20.3333C100.214 20.3333 101.93 24.7501 102 26.7836H97.1331C96.8178 25.3114 95.978 24.2941 94.017 24.2941C91.7057 24.2941 90.4104 26.2925 90.4104 29.7983C90.4104 33.6899 91.8108 35.4417 93.982 35.4417C95.7338 35.4417 96.6426 34.4255 97.0981 33.0585H102Z" fill="#0E436E"/>
<path fill-rule="evenodd" clip-rule="evenodd" d="M102.667 39V13.6667H107.667V39H102.667Z" fill="#0E436E"/>
<path d="M113.349 30.9197C113.349 33.1988 114.498 35.4077 116.97 35.4077C119.06 35.4077 119.652 34.5658 120.14 33.4794H125.12C124.494 35.6873 122.508 39.3333 116.867 39.3333C110.91 39.3333 108.333 34.8815 108.333 30.114C108.333 24.3993 111.224 20.3333 117.04 20.3333C123.205 20.3333 125.329 24.8553 125.329 29.3773C125.344 29.8942 125.32 30.4114 125.26 30.9249L113.349 30.9197ZM120.319 27.8349C120.284 25.7313 119.449 23.9433 117.01 23.9433C114.642 23.9433 113.667 25.594 113.457 27.8349H120.319Z" fill="#0E436E"/>
<path d="M126.037 13.6667H131.084V22.903C131.82 21.7617 133.327 20.5858 136.271 20.5858C141.213 20.5858 143.667 24.6328 143.667 29.647C143.667 34.7671 141.003 39.3333 135.78 39.3333C133.081 39.3333 131.89 38.5372 131.013 37.2228C131.005 37.7934 130.936 38.3616 130.807 38.9179H126C126.036 36.9835 126.036 35.0094 126.036 33.0719L126.037 13.6667ZM134.729 24.5605C131.855 24.5605 130.838 26.3931 130.838 30.0583C130.838 33.0678 131.75 35.3851 134.654 35.3851C137.212 35.3851 138.58 33.1371 138.58 29.7468C138.584 26.7382 137.427 24.5605 134.729 24.5605Z" fill="#0E436E"/>
<path d="M161.333 29.7983C161.333 35.3024 158.09 39.3333 152.432 39.3333C146.91 39.3333 143.667 35.3024 143.667 29.9035C143.667 24.2941 147.018 20.3333 152.672 20.3333C157.917 20.3333 161.333 24.1187 161.333 29.7983ZM148.67 29.8333C148.67 33.3412 150.154 35.4046 152.535 35.4046C154.984 35.4046 156.33 33.3412 156.33 29.8653C156.33 26.0789 154.95 24.2941 152.471 24.2941C150.188 24.2941 148.67 26.017 148.67 29.8344V29.8333Z" fill="#0E436E"/>
<path d="M179.333 29.7983C179.333 35.3024 176.09 39.3333 170.431 39.3333C164.91 39.3333 161.667 35.3024 161.667 29.9035C161.667 24.2941 165.018 20.3333 170.673 20.3333C175.918 20.3333 179.333 24.1187 179.333 29.7983ZM166.67 29.8333C166.67 33.3412 168.154 35.4046 170.535 35.4046C172.985 35.4046 174.331 33.3412 174.331 29.8653C174.331 26.0789 172.95 24.2941 170.466 24.2941C168.188 24.2941 166.67 26.017 166.67 29.8344V29.8333Z" fill="#0E436E"/>
<path fill-rule="evenodd" clip-rule="evenodd" d="M180.035 25.7159C180.035 24.1594 180.035 22.6375 180 21.0809H184.788C184.859 21.5309 184.964 22.5336 184.994 23.2259C185.903 21.9116 187.371 20.6666 190.027 20.6666C192.614 20.6666 194.047 22.0155 194.676 23.3989C195.759 21.9462 197.298 20.6666 200.268 20.6666C203.414 20.6666 206 22.6008 206 27.2389V38.9999H201.108V27.8609C201.108 26.2321 200.513 24.644 198.451 24.644C196.353 24.644 195.515 26.0274 195.515 28.7608V38.9999H190.587V28.0339C190.587 26.2015 190.132 24.6745 188 24.6745C185.973 24.6745 184.994 25.9205 184.994 28.998V38.9999H180.031L180.035 25.7159Z" fill="#0E436E"/>
<path fill-rule="evenodd" clip-rule="evenodd" d="M8.32949 26.9752C8.15187 23.4767 8.96283 19.9995 10.6667 16.9542L3.90226 12.0001C0.944257 16.8894 -0.389248 22.6154 0.0984152 28.3334L8.32949 26.9752Z" fill="#8DC63F"/>
<path fill-rule="evenodd" clip-rule="evenodd" d="M13.2238 13.6667C15.5712 11.0846 18.6164 9.2207 21.9999 8.29493L20.6395 0C15.0446 1.32681 10.0291 4.3977 6.33325 8.75943L13.2238 13.6667Z" fill="#F15A29"/>
<path fill-rule="evenodd" clip-rule="evenodd" d="M14.3332 39.7737C11.7497 37.4278 9.88464 34.3833 8.95835 31L0.666504 32.3609C1.99242 37.9552 5.06214 42.9705 9.42268 46.6667L14.3332 39.7737Z" fill="#FBB040"/>
<path fill-rule="evenodd" clip-rule="evenodd" d="M27.9792 44.6694C24.4808 44.848 21.0034 44.0374 17.9582 42.3334L13 49.0982C17.8894 52.0558 23.6153 53.3892 29.3333 52.9017L27.9792 44.6694Z" fill="#27AAE1"/>
<path fill-rule="evenodd" clip-rule="evenodd" d="M40.4428 38.3333C38.0955 40.9156 35.0505 42.7805 31.6667 43.7081L33.0272 52C38.6218 50.6729 43.637 47.6033 47.3334 43.2438L40.4428 38.3333Z" fill="#0E436E"/>
<path d="M27 43.3334C36.3888 43.3334 44 35.7222 44 26.3334C44 16.9445 36.3888 9.33337 27 9.33337C17.6112 9.33337 10 16.9445 10 26.3334C10 35.7222 17.6112 43.3334 27 43.3334Z" fill="#0E436E"/>
<path fill-rule="evenodd" clip-rule="evenodd" d="M38.3333 14.1252C38.3333 14.1252 43.3882 12.1513 49.3333 16.3941C49.3333 16.3941 43.5705 16.4192 42.1863 21.6666L38.3333 14.1252Z" fill="#0E436E"/>
</svg>
