<svg width="26" height="22" viewBox="0 0 26 22" fill="none" xmlns="http://www.w3.org/2000/svg">
<path d="M24.8499 18.9062L14.3901 1.03125C13.6044 -0.34375 11.5419 -0.34375 10.7562 1.03125L0.296342 18.9062C-0.53848 20.2812 0.49277 22 2.11331 22H23.0329C24.6535 22 25.6847 20.2812 24.8499 18.9062ZM11.3946 6.67857C11.3946 6.04018 11.9347 5.5 12.5731 5.5C13.2115 5.5 13.7517 6.04018 13.7517 6.67857V12.9643C13.7517 13.6027 13.2115 14.1429 12.5731 14.1429C11.9347 14.1429 11.3946 13.6027 11.3946 12.9643V6.67857ZM12.5731 18.8571C11.7383 18.8571 11.0508 18.1696 11.0508 17.3348C11.0508 16.4509 11.7383 15.7634 12.5731 15.7634C13.4079 15.7634 14.0954 16.4509 14.0954 17.3348C14.0954 18.1696 13.4079 18.8571 12.5731 18.8571Z" fill="#856404"/>
</svg>
