<svg width="22" height="22" viewBox="0 0 22 22" fill="none" xmlns="http://www.w3.org/2000/svg">
<path d="M11 0C4.9346 0 0 4.9346 0 11C0 17.0654 4.9346 22 11 22C17.0654 22 22 17.0654 22 11C22 4.9346 17.0654 0 11 0ZM11 20C6.03733 20 2 15.9626 2 11C2 6.0374 6.03733 2 11 2C15.9627 2 20 6.0374 20 11C20 15.9626 15.9626 20 11 20Z" fill="#4C8948"/>
<path d="M15.1249 7.11093L9.46798 12.7678L6.87531 10.1751C6.48485 9.7846 5.85165 9.78453 5.46111 10.175C5.07058 10.5655 5.07058 11.1987 5.46111 11.5892L8.76085 14.8891C8.94838 15.0766 9.20271 15.182 9.46791 15.182C9.46798 15.182 9.46791 15.182 9.46798 15.182C9.73318 15.182 9.98751 15.0766 10.175 14.8891L16.5391 8.5252C16.9296 8.13467 16.9296 7.50153 16.5391 7.111C16.1486 6.72047 15.5154 6.7204 15.1249 7.11093Z" fill="#4C8948"/>
</svg>
