<svg width="22" height="22" viewBox="0 0 22 22" fill="none" xmlns="http://www.w3.org/2000/svg">
<path d="M11 0.6875C5.28516 0.6875 0.6875 5.28516 0.6875 11C0.6875 16.7148 5.28516 21.3125 11 21.3125C16.7148 21.3125 21.3125 16.7148 21.3125 11C21.3125 5.28516 16.7148 0.6875 11 0.6875ZM11 19.25C6.44531 19.25 2.75 15.5547 2.75 11C2.75 6.44531 6.44531 2.75 11 2.75C15.5547 2.75 19.25 6.44531 19.25 11C19.25 15.5547 15.5547 19.25 11 19.25ZM11 13.0625C11.5586 13.0625 12.0312 12.5898 12.0312 12.0312V6.53125C12.0312 5.97266 11.5586 5.5 11 5.5C10.4414 5.5 9.96875 5.97266 9.96875 6.53125V12.0312C9.96875 12.5898 10.4414 13.0625 11 13.0625ZM11 14.4805C10.2695 14.4805 9.66797 15.082 9.66797 15.8555C9.66797 16.5859 10.2695 17.1875 11 17.1875C11.7305 17.1875 12.332 16.5859 12.332 15.8555C12.332 15.082 11.7305 14.4805 11 14.4805Z" fill="#721C24"/>
</svg>
