<svg width="22" height="22" viewBox="0 0 22 22" fill="none" xmlns="http://www.w3.org/2000/svg">
<path d="M11 0C4.90417 0 0 4.90417 0 11C0 17.0958 4.90417 22 11 22C17.0958 22 22 17.0958 22 11C22 4.90417 17.0958 0 11 0ZM11 19.8C6.14167 19.8 2.2 15.8583 2.2 11C2.2 6.14167 6.14167 2.2 11 2.2C15.8583 2.2 19.8 6.14167 19.8 11C19.8 15.8583 15.8583 19.8 11 19.8ZM12.8333 14.6667H12.1V10.6333C12.1 10.0375 11.5958 9.53333 11 9.53333H9.53333C8.9375 9.53333 8.43333 10.0375 8.43333 10.6333C8.43333 11.2292 8.9375 11.7333 9.53333 11.7333H9.9V14.6667H9.16667C8.57083 14.6667 8.06667 15.1708 8.06667 15.7667C8.06667 16.3625 8.57083 16.8667 9.16667 16.8667H12.8333C13.4292 16.8667 13.9333 16.3625 13.9333 15.7667C13.9333 15.1708 13.4292 14.6667 12.8333 14.6667ZM11 8.06667C11.825 8.06667 12.4667 7.425 12.4667 6.6C12.4667 5.775 11.825 5.13333 11 5.13333C10.175 5.13333 9.53333 5.775 9.53333 6.6C9.53333 7.425 10.175 8.06667 11 8.06667Z" fill="#3BACF3"/>
</svg>
