<svg width="214" height="41" viewBox="0 0 214 41" fill="none" xmlns="http://www.w3.org/2000/svg">
<path d="M52.7863 25.6535C52.3285 27.9681 50.6872 30.4712 46.5421 30.4712C42.2084 30.4712 39.9746 27.4833 39.9746 23.2851C39.9746 19.1661 42.4777 15.8835 46.7298 15.8835C51.4136 15.8835 52.7325 19.2746 52.7863 20.8359H49.0436C48.8012 19.7055 48.1548 18.9245 46.6482 18.9245C44.8715 18.9245 43.8758 20.4588 43.8758 23.1504C43.8758 26.1383 44.9523 27.4833 46.6213 27.4833C47.9679 27.4833 48.6665 26.7031 49.0166 25.6535H52.7863Z" fill="#0E436E"/>
<path d="M53.2148 13.9453V10.5044H57.0907V13.9493L53.2148 13.9453ZM53.2148 16.2061H57.0907V30.1473H53.2148V16.2061Z" fill="#0E436E"/>
<path d="M58.5167 20.001C58.5167 18.6014 58.5167 17.387 58.4897 16.206H62.2848C62.3386 16.5292 62.3925 17.9019 62.3925 18.6552C63.0112 17.071 64.4916 15.9105 66.8601 15.8828V19.5701C64.0607 19.4909 62.3925 20.2426 62.3925 24.0646V30.1488H58.5167V20.001Z" fill="#0E436E"/>
<path d="M78.9182 25.6535C78.4603 27.9681 76.819 30.4712 72.6739 30.4712C68.3402 30.4712 66.1064 27.4833 66.1064 23.2851C66.1064 19.1661 68.6095 15.8835 72.8624 15.8835C77.5454 15.8835 78.8643 19.2746 78.9182 20.8359H75.177C74.9346 19.7055 74.289 18.9245 72.7816 18.9245C71.0049 18.9245 70.0092 20.4588 70.0092 23.1504C70.0092 26.1383 71.0857 27.4833 72.7547 27.4833C74.1013 27.4833 74.7999 26.7031 75.15 25.6535H78.9182Z" fill="#0E436E"/>
<path d="M79.3481 30.1489V10.5044H83.224V30.1489H79.3481Z" fill="#0E436E"/>
<path d="M87.7186 24.0115C87.7186 25.7612 88.6066 27.4572 90.5172 27.4572C92.1323 27.4572 92.5893 26.8108 92.9664 25.9767H96.8153C96.3313 27.6718 94.797 30.4712 90.4372 30.4712C85.8342 30.4712 83.8428 27.0532 83.8428 23.3928C83.8428 19.0053 86.0765 15.8835 90.571 15.8835C95.3356 15.8835 96.9769 19.3554 96.9769 22.8272C96.9879 23.2241 96.9699 23.6212 96.923 24.0154L87.7186 24.0115ZM93.105 21.643C93.0781 20.0279 92.4325 18.6552 90.548 18.6552C88.7183 18.6552 87.9642 19.9225 87.8026 21.643H93.105Z" fill="#0E436E"/>
<path d="M97.5695 10.5044H101.445V17.6905C102.01 16.8025 103.167 15.8876 105.428 15.8876C109.223 15.8876 111.108 19.0363 111.108 22.9375C111.108 26.921 109.062 30.4737 105.051 30.4737C102.979 30.4737 102.064 29.8542 101.391 28.8316C101.385 29.2756 101.331 29.7177 101.232 30.1505H97.541C97.5687 28.6455 97.5687 27.1096 97.5687 25.6022L97.5695 10.5044ZM104.244 18.9801C102.037 18.9801 101.256 20.4059 101.256 23.2575C101.256 25.599 101.956 27.4018 104.187 27.4018C106.151 27.4018 107.202 25.6528 107.202 23.0151C107.205 20.6744 106.316 18.9801 104.244 18.9801Z" fill="#0E436E"/>
<path d="M124.86 23.1504C124.86 27.3764 122.33 30.4712 117.916 30.4712C113.61 30.4712 111.08 27.3764 111.08 23.2312C111.08 18.9245 113.694 15.8835 118.104 15.8835C122.195 15.8835 124.86 18.7898 124.86 23.1504ZM114.982 23.1774C114.982 25.8706 116.14 27.4548 117.997 27.4548C119.908 27.4548 120.957 25.8706 120.957 23.2019C120.957 20.2948 119.881 18.9245 117.947 18.9245C116.167 18.9245 114.982 20.2473 114.982 23.1782V23.1774Z" fill="#0E436E"/>
<path d="M138.613 23.1504C138.613 27.3764 136.083 30.4712 131.669 30.4712C127.363 30.4712 124.833 27.3764 124.833 23.2312C124.833 18.9245 127.447 15.8835 131.858 15.8835C135.949 15.8835 138.613 18.7898 138.613 23.1504ZM128.735 23.1774C128.735 25.8706 129.893 27.4548 131.75 27.4548C133.661 27.4548 134.711 25.8706 134.711 23.2019C134.711 20.2948 133.634 18.9245 131.696 18.9245C129.919 18.9245 128.735 20.2473 128.735 23.1782V23.1774Z" fill="#0E436E"/>
<path d="M139.232 19.8124C139.232 18.6013 139.232 17.4171 139.205 16.2059H142.892C142.947 16.556 143.028 17.3363 143.051 17.8749C143.751 16.8523 144.881 15.8835 146.927 15.8835C148.919 15.8835 150.022 16.9331 150.506 18.0096C151.34 16.8792 152.525 15.8835 154.813 15.8835C157.235 15.8835 159.227 17.3886 159.227 20.9975V30.1488H155.459V21.4814C155.459 20.214 155.001 18.9783 153.413 18.9783C151.798 18.9783 151.153 20.0548 151.153 22.1817V30.1488H147.358V21.6161C147.358 20.1903 147.007 19.0021 145.365 19.0021C143.805 19.0021 143.051 19.9717 143.051 22.3662V30.1488H139.229L139.232 19.8124Z" fill="#0E436E"/>
<path d="M6.54096 20.927C6.40148 18.2235 7.03831 15.5366 8.3763 13.1833L3.06436 9.35498C0.741504 13.1332 -0.305668 17.558 0.0772833 21.9766L6.54096 20.927Z" fill="#8DC63F"/>
<path d="M10.2016 10.6508C12.0112 8.63853 14.3587 7.18594 16.9671 6.46447L15.9183 0C11.6052 1.03402 7.73876 3.42725 4.88965 6.82647L10.2016 10.6508Z" fill="#F15A29"/>
<path d="M11.2319 30.7736C9.21782 28.9645 7.76377 26.6165 7.04162 24.0073L0.577148 25.0569C1.61086 29.3712 4.00407 33.239 7.40362 36.0895L11.2319 30.7736Z" fill="#FBB040"/>
<path d="M21.5078 34.4334C18.8044 34.5737 16.1173 33.9371 13.7641 32.5989L9.93262 37.9116C13.7109 40.2344 18.1356 41.2815 22.5542 40.8987L21.5078 34.4334Z" fill="#27AAE1"/>
<path d="M31.3548 29.7434C29.5453 31.7566 27.1979 33.2105 24.5894 33.9337L25.6381 40.3982C29.951 39.3635 33.8172 36.9704 36.6668 33.5717L31.3548 29.7434Z" fill="#0E436E"/>
<path d="M20.8053 33.4597C28.0827 33.4597 33.9822 27.5602 33.9822 20.2828C33.9822 13.0054 28.0827 7.10596 20.8053 7.10596C13.5279 7.10596 7.62842 13.0054 7.62842 20.2828C7.62842 27.5602 13.5279 33.4597 20.8053 33.4597Z" fill="#0E436E"/>
<path d="M29.7051 10.8053C29.7051 10.8053 33.6364 9.24723 38.2599 12.5963C38.2599 12.5963 33.7781 12.6161 32.7017 16.7581L29.7051 10.8053Z" fill="#0E436E"/>
<line x1="169.105" y1="5.2688" x2="169.105" y2="36.8822" stroke="#DCDCDC"/>
<path d="M180.351 28H182.268V24.1406H186.394V28H188.311V18.8403H186.394V22.5601H182.268V18.8403H180.351V28ZM190.533 28H196.601V26.4194H192.45V24.1025H196.366V22.6299H192.45V20.4209H196.601V18.8403H190.533V28ZM198.62 28H204.612V26.4194H200.537V18.8403H198.62V28ZM207.31 25.1118H210.128C210.771 25.1118 211.334 24.9827 211.816 24.7246C212.299 24.4665 212.673 24.1025 212.94 23.6328C213.211 23.1631 213.346 22.613 213.346 21.9824V21.9697C213.346 21.3434 213.211 20.7954 212.94 20.3257C212.673 19.856 212.299 19.492 211.816 19.2339C211.334 18.9715 210.771 18.8403 210.128 18.8403H207.31V20.3574H209.658C210.208 20.3574 210.636 20.4971 210.94 20.7764C211.249 21.0557 211.404 21.4556 211.404 21.9761V21.9888C211.404 22.5093 211.249 22.9113 210.94 23.1948C210.636 23.4741 210.208 23.6138 209.658 23.6138H207.31V25.1118ZM206.351 28H208.268V18.8403H206.351V28Z" fill="#0E436E"/>
</svg>
