<svg xmlns="http://www.w3.org/2000/svg" viewBox="0 0 865.52 204.39"><defs><style>.cls-1{fill:#00accd;}.cls-2{fill:#60cae6;}</style></defs><g id="Layer_2" data-name="Layer 2"><g id="Layer_1_copy" data-name="Layer 1 copy"><path class="cls-1" d="M109.57,7.07a7.05,7.05,0,1,1-7-7.07A7.05,7.05,0,0,1,109.57,7.07Z"/><path class="cls-1" d="M107.92,18.55l-11.1-.23c-1.32,1-6.43,5-10.48,8.29-3,2.43-6.28,5.22-8.51,7.12,4-.24,10.93-.58,18.78-.67,8.73-.09,15.9.13,16,.13h.4l.31.26s3.38,2.79,5.37,4.39c1.8,1.45,5.26,4.41,6.29,5.28,2.07.15,3.61.23,5,.3,1.51.08,2.82.14,4.41.29l3.93.38c-3.12-2.87-8.74-8-14.85-13.1l-1.11-.94C114,23.14,109.12,19.45,107.92,18.55Z"/><path class="cls-2" d="M107.92,18.55,113,33.2l.31.26s3.38,2.79,5.37,4.39c1.8,1.45,5.26,4.41,6.29,5.28,2.07.15,3.61.23,5,.3,1.51.08,2.82.14,4.41.29l3.93.38c-3.12-2.87-8.74-8-14.85-13.1l-1.11-.94C114,23.14,109.12,19.45,107.92,18.55Z"/><path class="cls-2" d="M96.84,18.32,91.78,33v.1l-13.72.6s2.11-1.9,3.3-2.9l1.11-.93C90.79,22.91,95.64,19.22,96.84,18.32Z"/><path class="cls-1" d="M108.94,197.36a7,7,0,1,1-7-7.06A7.05,7.05,0,0,1,108.94,197.36Z"/><path class="cls-1" d="M96.5,185.83l11.1.23c1.32-1,6.43-5,10.47-8.28,3-2.43,6.28-5.22,8.51-7.12-4,.23-10.92.58-18.77.67-8.73.09-15.9-.13-16-.13h-.4l-.3-.26s-3.39-2.79-5.37-4.4c-1.8-1.45-5.27-4.4-6.29-5.27-2.07-.16-3.61-.23-5-.3s-2.81-.14-4.4-.29l-3.93-.39c3.11,2.88,8.74,8,14.84,13.11l1.12.93C90.45,181.25,95.3,184.94,96.5,185.83Z"/><path class="cls-2" d="M96.5,185.83l-5.07-14.64-.3-.26s-3.39-2.79-5.37-4.4c-1.8-1.45-5.27-4.4-6.29-5.27-2.07-.16-3.61-.23-5-.3s-2.81-.14-4.4-.29l-3.93-.39c3.11,2.88,8.74,8,14.84,13.11l1.12.93C90.45,181.25,95.3,184.94,96.5,185.83Z"/><path class="cls-2" d="M107.58,186.06l5.06-14.65v-.1l13.72-.59s-2.11,1.9-3.3,2.9l-1.11.93C113.63,181.48,108.78,185.16,107.58,186.06Z"/><path class="cls-1" d="M14.09,101.93a7,7,0,1,1-7-7.07A7,7,0,0,1,14.09,101.93Z"/><path class="cls-1" d="M18.55,96.51l-.23,11.1c1,1.32,5,6.43,8.29,10.47,2.43,3,5.21,6.28,7.12,8.51-.24-4-.58-10.92-.67-18.77-.09-8.73.13-15.9.13-16v-.41l.26-.3s2.79-3.38,4.39-5.37c1.45-1.8,4.41-5.27,5.28-6.29.15-2.07.23-3.61.3-5s.14-2.81.29-4.4c.1-1.07.25-2.57.38-3.93-2.87,3.11-8,8.74-13.1,14.84l-.94,1.12C23.14,90.46,19.45,95.31,18.55,96.51Z"/><path class="cls-2" d="M18.55,96.51,33.2,91.44l.26-.3s2.79-3.38,4.39-5.37c1.45-1.8,4.41-5.27,5.28-6.29.15-2.07.23-3.61.3-5s.14-2.81.29-4.4c.1-1.07.25-2.57.38-3.93-2.87,3.11-8,8.74-13.1,14.84l-.94,1.12C23.14,90.46,19.45,95.31,18.55,96.51Z"/><path class="cls-2" d="M18.32,107.59,33,112.65h.1l.6,13.72s-1.9-2.11-2.9-3.3L29.84,122C22.91,113.64,19.22,108.79,18.32,107.59Z"/><path class="cls-1" d="M204.39,102.55a7,7,0,1,1-7-7.06A7.06,7.06,0,0,1,204.39,102.55Z"/><path class="cls-1" d="M185.84,107.93l.22-11.1c-1-1.32-5-6.43-8.28-10.48-2.43-3-5.22-6.28-7.12-8.51.24,4,.58,10.93.67,18.78.09,8.73-.13,15.9-.13,16v.4l-.26.31s-2.79,3.38-4.4,5.37c-1.45,1.8-4.4,5.26-5.27,6.28-.16,2.08-.23,3.62-.3,5-.08,1.52-.14,2.82-.29,4.41-.1,1.07-.25,2.56-.39,3.92,2.88-3.11,8-8.73,13.11-14.84l.93-1.12C181.25,114,184.94,109.13,185.84,107.93Z"/><path class="cls-2" d="M185.84,107.93,171.19,113l-.26.31s-2.79,3.38-4.4,5.37c-1.45,1.8-4.4,5.26-5.27,6.28-.16,2.08-.23,3.62-.3,5-.08,1.52-.14,2.82-.29,4.41-.1,1.07-.25,2.56-.39,3.92,2.88-3.11,8-8.73,13.11-14.84l.93-1.12C181.25,114,184.94,109.13,185.84,107.93Z"/><path class="cls-2" d="M186.06,96.85l-14.65-5.06h-.09l-.6-13.72s1.9,2.11,2.9,3.3l.93,1.11C181.48,90.8,185.16,95.65,186.06,96.85Z"/><path class="cls-1" d="M42.22,34.72a7.05,7.05,0,1,1-7-7.07A7,7,0,0,1,42.22,34.72Z"/><path class="cls-1" d="M47.12,39l-8,7.68c-.21,1.66-1,8.08-1.54,13.27-.4,3.83-.76,8.13-1,11.06,2.64-3,7.31-8.14,12.81-13.76,6.1-6.23,11.33-11.15,11.38-11.2l.29-.27.4,0s4.37-.42,6.91-.69c2.29-.25,6.83-.61,8.17-.71C78.12,43,79.26,42,80.27,41.05s2.1-1.89,3.32-2.91l3-2.51c-4.23.17-11.82.54-19.76,1.23L65.43,37C54.65,38,48.61,38.81,47.12,39Z"/><path class="cls-2" d="M47.12,39,61.06,45.8l.4,0s4.37-.42,6.91-.69c2.29-.25,6.83-.61,8.17-.71C78.12,43,79.26,42,80.27,41.05s2.1-1.89,3.32-2.91l3-2.51c-4.23.17-11.82.54-19.76,1.23L65.43,37C54.65,38,48.61,38.81,47.12,39Z"/><path class="cls-2" d="M39.13,46.69l6.78,13.94.06.08L36.69,70.83s.15-2.84.28-4.38L37.1,65C38.09,54.21,38.92,48.17,39.13,46.69Z"/><path class="cls-1" d="M176.34,169.72a7,7,0,1,1-7-7.06A7,7,0,0,1,176.34,169.72Z"/><path class="cls-1" d="M157.34,165.38l8-7.69c.21-1.66,1-8.08,1.54-13.26.4-3.83.76-8.13,1-11.06-2.64,3-7.31,8.14-12.81,13.75-6.1,6.24-11.33,11.16-11.38,11.21l-.29.27-.4,0s-4.37.41-6.91.69c-2.29.24-6.83.61-8.17.71-1.58,1.36-2.72,2.39-3.73,3.31s-2.09,1.89-3.32,2.91l-3.05,2.5c4.23-.16,11.82-.53,19.76-1.22l1.45-.13C149.81,166.41,155.85,165.59,157.34,165.38Z"/><path class="cls-2" d="M157.34,165.38,143.4,158.6l-.4,0s-4.37.41-6.91.69c-2.29.24-6.83.61-8.17.71-1.58,1.36-2.72,2.39-3.73,3.31s-2.09,1.89-3.32,2.91l-3.05,2.5c4.23-.16,11.82-.53,19.76-1.22l1.45-.13C149.81,166.41,155.85,165.59,157.34,165.38Z"/><path class="cls-2" d="M165.33,157.71l-6.78-13.94-.06-.08,9.28-10.12s-.15,2.84-.28,4.38l-.13,1.45C166.36,150.19,165.54,156.22,165.33,157.71Z"/><path class="cls-1" d="M41.78,169.31a7,7,0,1,1-7-7.07A7,7,0,0,1,41.78,169.31Z"/><path class="cls-1" d="M39.05,157.33l7.69,8c1.66.21,8.08,1,13.27,1.55,3.83.4,8.13.75,11.05,1-3-2.65-8.14-7.32-13.75-12.81-6.24-6.1-11.15-11.33-11.2-11.38l-.28-.3,0-.39s-.42-4.37-.69-6.91c-.25-2.3-.61-6.83-.72-8.18-1.35-1.57-2.39-2.71-3.3-3.73s-1.89-2.09-2.92-3.32l-2.5-3c.17,4.24.53,11.82,1.23,19.77L37,139C38,149.81,38.84,155.85,39.05,157.33Z"/><path class="cls-2" d="M39.05,157.33l6.78-13.94,0-.39s-.42-4.37-.69-6.91c-.25-2.3-.61-6.83-.72-8.18-1.35-1.57-2.39-2.71-3.3-3.73s-1.89-2.09-2.92-3.32l-2.5-3c.17,4.24.53,11.82,1.23,19.77L37,139C38,149.81,38.84,155.85,39.05,157.33Z"/><path class="cls-2" d="M46.73,165.33l13.94-6.78.07-.06,10.12,9.27s-2.83-.14-4.38-.28L65,167.35C54.25,166.36,48.21,165.54,46.73,165.33Z"/><path class="cls-1" d="M176.78,35.19a7,7,0,1,1-7-7.07A7,7,0,0,1,176.78,35.19Z"/><path class="cls-1" d="M165.42,47.12l-7.69-8c-1.66-.21-8.08-1-13.27-1.55-3.82-.39-8.12-.75-11.05-1,3,2.64,8.14,7.31,13.75,12.8,6.24,6.11,11.15,11.34,11.21,11.39l.27.29,0,.4s.41,4.37.68,6.9c.25,2.3.61,6.84.72,8.18,1.36,1.57,2.39,2.72,3.3,3.73s1.9,2.09,2.92,3.32c.68.83,1.64,2,2.5,3-.17-4.23-.53-11.82-1.23-19.76l-.13-1.45C166.45,54.64,165.63,48.61,165.42,47.12Z"/><path class="cls-2" d="M165.42,47.12l-6.78,13.94,0,.4s.41,4.37.68,6.9c.25,2.3.61,6.84.72,8.18,1.36,1.57,2.39,2.72,3.3,3.73s1.9,2.09,2.92,3.32c.68.83,1.64,2,2.5,3-.17-4.23-.53-11.82-1.23-19.76l-.13-1.45C166.45,54.64,165.63,48.61,165.42,47.12Z"/><path class="cls-2" d="M157.75,39.13,143.81,45.9l-.08.07-10.12-9.28s2.83.14,4.38.28l1.45.13C150.22,38.09,156.26,38.91,157.75,39.13Z"/><path class="cls-1" d="M56.51,106.4l-.33-.27H65.3c3.85,0,7,1.82,7,5.62v4.45a4.42,4.42,0,0,1-2.76,4.35l3.56,7.76.33.27H66.57l.36-.27-2.51-6.6H62.35v6.6l.37.27H56.18l.33-.27Zm5.84,10.83H65.3a1.06,1.06,0,0,0,1.16-.94v-4.54a1.07,1.07,0,0,0-1.16-.94H62.35Z"/><path class="cls-1" d="M88.59,106.13l.29-.28v5.45l-.33-.28H82.41v3.87H88l.33-.28v5.48l-.33-.3H82.41v3.89H89.1l.32-.27v5.45l-.32-.28H76.23l.33-.27V106.13Z"/><path class="cls-1" d="M105.93,128.58H92.67l.33-.24V106.13h5.85v17.55h6.75v4.63Z"/><path class="cls-1" d="M131.36,106.13l.29-.28v5.45l-.33-.28h-6.14v3.87h5.63l.33-.28v5.48l-.33-.3h-5.63v3.89h6.68l.33-.27v5.45l-.33-.28H119l.33-.27V106.13Z"/><path class="cls-1" d="M141.6,111V115h5.55l.33-.27v5.38l-.33-.27H141.6v8.52l.32.27h-6.5l.33-.27V106.13h12.13l.33-.28v5.45l-.33-.28Z"/><polygon class="cls-1" points="115.45 106.4 115.81 106.13 109.53 106.13 109.53 106.4 109.53 128.31 109.16 128.58 115.81 128.58 115.45 128.31 115.45 106.4"/><path class="cls-1" d="M57.28,77.93l.26-.29v5.78l-.29-.29H51.74v4.1h5l.29-.29v5.81l-.29-.32h-5v4.14h6l.3-.3v5.78l-.3-.29H46.21l.29-.29V77.93Z"/><path class="cls-1" d="M77.6,77.68v23.79l.29.29H72.06l.3-.29V95.63l.16-5.78L69,93.69l-3.51-3.84.19,5.91v5.71l.3.29H60.18l.29-.29V77.64h.33L69,86.81l8.21-9.13Zm-17.13,0h0Z"/><path class="cls-1" d="M94.31,83.75a5.39,5.39,0,0,1-2.47,4.65c1.36.48,2.44,1.55,2.44,3.9v3.26c0,4.2-2,6.2-6.12,6.2h-8l.29-.29V78.23l-.29-.3h7.91C91.8,77.93,94.31,80.39,94.31,83.75Zm-8.63,2.48h2.45c1.14-.32,1.59-3.42-.2-3.42H85.68ZM89,95.82V92.53a1,1,0,0,0-1-1H85.68v5.26H88A1,1,0,0,0,89,95.82Z"/><path class="cls-1" d="M96.7,78.23l-.29-.3h8.17c3.45,0,6.28,1.94,6.28,6v4.71a4.82,4.82,0,0,1-2.47,4.62l3.19,8.23.29.29h-6.15l.33-.29-2.25-7h-1.86v7l.33.29H96.41l.29-.29Zm5.24,11.49h2.64a1,1,0,0,0,1-1V83.91a1,1,0,0,0-1-1h-2.64Z"/><path class="cls-1" d="M124.62,97.86h-4.86l-.91,3.61.3.29h-6.06l.36-.29,5.92-23.21-.29-.29h6.19l-.33.29,6,23.21.29.29h-6l.33-.29Zm-2.48-12.43L120.87,93h2.61l-1.27-7.55Z"/><path class="cls-1" d="M137.59,95.56a1,1,0,0,0,1,1h5.57v5.19h-5.57a6.23,6.23,0,0,1-6.29-6.2V84.17a6.25,6.25,0,0,1,6.29-6.24h5.3v5.2h-5.3a1,1,0,0,0-1,1Z"/><path class="cls-1" d="M157.43,77.93l.26-.29v5.78l-.29-.29h-5.5v4.1h5l.29-.29v5.81l-.29-.32h-5v4.14h6l.29-.3v5.78l-.29-.29H146.36l.29-.29V77.93Z"/><path class="cls-1" d="M227.35,80.13h36.88V87H236.09v13.85h24v6.51h-24v14.25h28.14v6.9H227.35Z"/><path class="cls-1" d="M273.91,80.13h8.24l16.55,31.56,16.24-31.56h8.27v48.42h-8.74V98.36h-.2l-12.09,23.25H294.9L282.81,98.36h-.16v30.19h-8.74Z"/><path class="cls-1" d="M337.36,80.13h22.38q8.5.08,12.79,3.59a11.59,11.59,0,0,1,4.31,9.4,9.7,9.7,0,0,1-1.7,5.71,10.37,10.37,0,0,1-2.61,2.46,19.57,19.57,0,0,1-4.2,2.22v.14a10.91,10.91,0,0,1,9.41,11.15,12.2,12.2,0,0,1-4.67,9.93,17.09,17.09,0,0,1-11.38,3.82H337.36Zm8.74,6.51v13.92h12.64q4.8,0,7.06-2.1a6.12,6.12,0,0,0,2.3-4.88,6.42,6.42,0,0,0-2.3-5q-2.26-1.9-7.06-2Zm0,20.42v14.59h13.5q4.88-.08,7.14-2.23a6.72,6.72,0,0,0,2.26-5.06,6.79,6.79,0,0,0-2.26-5.13q-2.26-2.1-7.14-2.17Z"/><path class="cls-1" d="M388.42,80.13H411q7.22,0,11.77,3.19a12.23,12.23,0,0,1,5.73,10.33q-.17,9.87-11.15,13.42l13.36,21.48H420.31l-11.95-20.69h-11.2v20.69h-8.74Zm8.74,21.23h13.26q4.92-.08,7.38-2.4a6.86,6.86,0,0,0,2.43-5.33,6.09,6.09,0,0,0-2.9-5.49,11.49,11.49,0,0,0-6.43-1.5H397.16Z"/><path class="cls-1" d="M469.07,117.72h-21.9l-4.43,10.83h-9.27l21-48.42h7.32l21,48.42h-9.23Zm-2.5-6.5L458.22,90h-.16l-8.35,21.18Z"/><path class="cls-1" d="M528,115a17.87,17.87,0,0,1-7.25,10.34,25,25,0,0,1-24.39.79,17.77,17.77,0,0,1-6.73-5.91c-.42-.73-.81-1.43-1.15-2.09a12.31,12.31,0,0,1-.79-2.59,67.79,67.79,0,0,1-.59-11.23,68.82,68.82,0,0,1,.59-11.29,12,12,0,0,1,1.94-4.61,18.32,18.32,0,0,1,6.73-6,22.71,22.71,0,0,1,11.37-2.72q8.35.06,13.62,4.14A17.62,17.62,0,0,1,528,94.06h-9.28a10.66,10.66,0,0,0-3.89-5,12.84,12.84,0,0,0-7.13-2,14,14,0,0,0-5.32,1,11,11,0,0,0-3.65,2.5,7.59,7.59,0,0,0-2.26,4,49.1,49.1,0,0,0-.63,9.75,48.1,48.1,0,0,0,.63,9.69,7.64,7.64,0,0,0,2.26,4.09,10.19,10.19,0,0,0,3.66,2.43A12.72,12.72,0,0,0,518.7,115Z"/><path class="cls-1" d="M535.59,80.13h36.89V87H544.33v13.85h24v6.51h-24v14.25h28.15v6.9H535.59Z"/><path class="cls-1" d="M602.23,80.13h22.56q7.22,0,11.77,3.19a12.23,12.23,0,0,1,5.73,10.33q-.16,9.87-11.15,13.42l13.36,21.48H634.12l-12-20.69H611v20.69h-8.74ZM611,101.36h13.26q4.92-.08,7.38-2.4A6.86,6.86,0,0,0,634,93.63a6.09,6.09,0,0,0-2.9-5.49,11.49,11.49,0,0,0-6.43-1.5H611Z"/><path class="cls-1" d="M653.29,80.13h36.88V87H662v13.85h24v6.51H662v14.25h28.14v6.9H653.29Z"/><path class="cls-1" d="M699.85,80.13h8.74v41.52h28.15v6.9H699.85Z"/><path class="cls-1" d="M746.42,80.13h8.74v48.42h-8.74Z"/><path class="cls-1" d="M768,80.13h36.89V87H776.74v13.85h24v6.51h-24v14.25h28.15v6.9H768Z"/><path class="cls-1" d="M814.57,80.13h36.88V87H823.31v14.32h24v6.5h-24v20.69h-8.74Z"/><path class="cls-1" d="M531.32,165.42l-.75,3.55H527l.66-3.12a8.34,8.34,0,0,1,1.81-4.09,4.73,4.73,0,0,1,2.92-1.49l-.27,1.37q-2,.56-2.74,3.78Zm5.53,0L536.1,169h-3.57l.66-3.12a8.25,8.25,0,0,1,1.81-4.09,4.73,4.73,0,0,1,2.92-1.49l-.28,1.37q-2,.56-2.73,3.78Z"/><path class="cls-1" d="M536.67,186.11l5.32-25.4h18.34l-.6,2.89H544.79l-1.67,7.9h14.56l-.61,2.9H542.51l-1.83,8.84h16l-.61,2.87Z"/><path class="cls-1" d="M559.92,186.11l3.84-18.4h3.14l-.64,3a12.32,12.32,0,0,1,3.13-2.7,6.14,6.14,0,0,1,3-.75,4.54,4.54,0,0,1,2.87.91,4.28,4.28,0,0,1,1.51,2.54,10.46,10.46,0,0,1,3-2.59,6.66,6.66,0,0,1,3.27-.86,4.87,4.87,0,0,1,3.45,1.09,4,4,0,0,1,1.16,3.07,16.84,16.84,0,0,1-.4,2.81l-2.48,11.85h-3.14L584.11,174a11.49,11.49,0,0,0,.33-2.14,1.83,1.83,0,0,0-.57-1.42,2.34,2.34,0,0,0-1.61-.52,5.7,5.7,0,0,0-2.86.85,6.12,6.12,0,0,0-2.26,2.23,15,15,0,0,0-1.42,4.24l-1.87,8.92h-3.14l2.61-12.42a10.12,10.12,0,0,0,.27-1.81,2,2,0,0,0-.56-1.45,2,2,0,0,0-1.47-.56,5.61,5.61,0,0,0-2.79.85,6.7,6.7,0,0,0-2.39,2.37,14.36,14.36,0,0,0-1.51,4.32l-1.82,8.7Z"/><path class="cls-1" d="M589.5,186.11l5.31-25.4h3.13l-1.88,9.08a11,11,0,0,1,2.7-1.94,6,6,0,0,1,2.53-.56,5.54,5.54,0,0,1,4.31,1.93,8.1,8.1,0,0,1,1.72,5.59,13.89,13.89,0,0,1-.69,4.48,12.43,12.43,0,0,1-1.72,3.4,10.62,10.62,0,0,1-2.11,2.2,8.42,8.42,0,0,1-2.24,1.23,6.56,6.56,0,0,1-2.2.41,5.52,5.52,0,0,1-3.21-1,6.23,6.23,0,0,1-2.16-2.94l-.73,3.48Zm4.65-7.55,0,.59a5.12,5.12,0,0,0,1.13,3.58,3.63,3.63,0,0,0,2.81,1.24,4.62,4.62,0,0,0,3-1.16,8.2,8.2,0,0,0,2.26-3.59,13.33,13.33,0,0,0,.89-4.51,5.36,5.36,0,0,0-1.12-3.61,3.55,3.55,0,0,0-2.77-1.28,4.54,4.54,0,0,0-3.12,1.31,9.83,9.83,0,0,0-2.37,4A10.74,10.74,0,0,0,594.15,178.56Z"/><path class="cls-1" d="M609.24,186.11l3.85-18.4h2.78l-.78,3.76a12.8,12.8,0,0,1,2.78-3.16,4.59,4.59,0,0,1,2.78-1,5.47,5.47,0,0,1,2.3.68l-1.28,2.91a3,3,0,0,0-1.78-.59,4.81,4.81,0,0,0-3.38,1.84q-1.74,1.83-2.72,6.6l-1.56,7.38Z"/><path class="cls-1" d="M633.48,183.83a12.69,12.69,0,0,1-3.14,2,8.13,8.13,0,0,1-3.22.65A5.68,5.68,0,0,1,623,185a5.09,5.09,0,0,1-1.56-3.84,5.23,5.23,0,0,1,.7-2.73,5.55,5.55,0,0,1,1.86-1.9,8.25,8.25,0,0,1,2.85-1,35.42,35.42,0,0,1,4-.33,14.23,14.23,0,0,0,4.24-.62,8.13,8.13,0,0,0,.36-2.13,2.08,2.08,0,0,0-.8-1.72,5.1,5.1,0,0,0-3.19-.86,5.57,5.57,0,0,0-3.23.87,4.94,4.94,0,0,0-1.83,2.49l-3.17-.28a8.28,8.28,0,0,1,3.08-4.19,9.11,9.11,0,0,1,5.31-1.46,8.29,8.29,0,0,1,5.41,1.63,3.86,3.86,0,0,1,1.52,3.16,15.78,15.78,0,0,1-.43,3.41l-1,4.58a16.72,16.72,0,0,0-.49,3.55,12,12,0,0,0,.38,2.49h-3.17A11.86,11.86,0,0,1,633.48,183.83Zm1.16-7a7.57,7.57,0,0,1-1.42.4c-.5.09-1.34.19-2.52.29a19,19,0,0,0-3.86.62,3.21,3.21,0,0,0-1.7,1.19,3.06,3.06,0,0,0-.57,1.8,2.8,2.8,0,0,0,.91,2.16,3.63,3.63,0,0,0,2.59.85,6.11,6.11,0,0,0,5.27-3.12A13.39,13.39,0,0,0,634.64,176.79Z"/><path class="cls-1" d="M653.51,179.41l3.14.33a10.65,10.65,0,0,1-3.35,5.12,7.93,7.93,0,0,1-4.95,1.67,6.44,6.44,0,0,1-4.86-1.94,7.48,7.48,0,0,1-1.87-5.43,15.39,15.39,0,0,1,1.2-5.92,9.63,9.63,0,0,1,3.42-4.43,8.85,8.85,0,0,1,5.09-1.52A6.52,6.52,0,0,1,656,169a5.91,5.91,0,0,1,1.73,4.43l-3.09.21a3.75,3.75,0,0,0-1-2.74,3.58,3.58,0,0,0-2.63-1,4.82,4.82,0,0,0-3.27,1.2,7.9,7.9,0,0,0-2.18,3.63,15.38,15.38,0,0,0-.79,4.69,5.25,5.25,0,0,0,1,3.54,3.31,3.31,0,0,0,2.57,1.17,4.47,4.47,0,0,0,2.92-1.16A7.59,7.59,0,0,0,653.51,179.41Z"/><path class="cls-1" d="M672.08,179.86l3,.31a9.29,9.29,0,0,1-3,4.32,8.36,8.36,0,0,1-5.64,2,7.62,7.62,0,0,1-3.75-.94,6.18,6.18,0,0,1-2.6-2.75,9.07,9.07,0,0,1-.9-4.11,13.11,13.11,0,0,1,1.4-5.85,10,10,0,0,1,3.61-4.21,8.93,8.93,0,0,1,4.81-1.38,7,7,0,0,1,5.26,2.05,7.7,7.7,0,0,1,2,5.58,16.64,16.64,0,0,1-.24,2.77H662.46a7,7,0,0,0-.07,1,5.81,5.81,0,0,0,1.18,3.94,3.73,3.73,0,0,0,2.91,1.37,5.65,5.65,0,0,0,3.17-1.06A6.92,6.92,0,0,0,672.08,179.86ZM663,175.3h10.33c0-.32,0-.56,0-.69a5.12,5.12,0,0,0-1.18-3.62,4,4,0,0,0-3-1.25,5.57,5.57,0,0,0-3.66,1.38A8.36,8.36,0,0,0,663,175.3Z"/><path class="cls-1" d="M695,186.11l4.7-22.51H691.4l.61-2.89h20l-.61,2.89h-8.26l-4.7,22.51Z"/><path class="cls-1" d="M709.84,186.11l5.31-25.4h3.13l-2,9.75a13,13,0,0,1,3.26-2.43,7,7,0,0,1,3.1-.74,4.91,4.91,0,0,1,3.55,1.21,4.19,4.19,0,0,1,1.27,3.18,21.1,21.1,0,0,1-.56,3.57l-2.27,10.86h-3.14L723.81,175a21.13,21.13,0,0,0,.51-3.05,1.89,1.89,0,0,0-.63-1.47,2.51,2.51,0,0,0-1.8-.58,6.63,6.63,0,0,0-5.66,3.34,18.6,18.6,0,0,0-1.6,5l-1.65,7.9Z"/><path class="cls-1" d="M743.1,179.86l3,.31a9.19,9.19,0,0,1-3,4.32,8.36,8.36,0,0,1-5.64,2,7.57,7.57,0,0,1-3.75-.94,6.18,6.18,0,0,1-2.6-2.75,9.07,9.07,0,0,1-.9-4.11,13.11,13.11,0,0,1,1.4-5.85,10,10,0,0,1,3.61-4.21,8.93,8.93,0,0,1,4.8-1.38,6.93,6.93,0,0,1,5.26,2.05,7.71,7.71,0,0,1,2,5.58,16.64,16.64,0,0,1-.24,2.77H733.48a9,9,0,0,0-.07,1,5.82,5.82,0,0,0,1.19,3.94,3.71,3.71,0,0,0,2.91,1.37,5.65,5.65,0,0,0,3.17-1.06A6.84,6.84,0,0,0,743.1,179.86ZM734,175.3h10.33c0-.32,0-.56,0-.69a5.12,5.12,0,0,0-1.17-3.62,4,4,0,0,0-3-1.25,5.57,5.57,0,0,0-3.66,1.38A8.28,8.28,0,0,0,734,175.3Z"/><path class="cls-1" d="M764,186.11l-1.56-25.4h3.45l.59,12.56c0,.6.09,2.23.17,4.89q0,1.11,0,1.56c0,.2,0,.77,0,1.71,1.41-2.88,2.42-4.92,3.05-6.1l7.73-14.62H781l.85,14.85q.13,2.55.19,6.13c.21-.58.58-1.46,1.11-2.63.84-1.88,1.47-3.23,1.87-4l7.25-14.31h3.46l-12.93,25.4h-3.64l-.85-15.39c-.08-1.31-.14-2.93-.19-4.85-.7,1.61-1.29,2.85-1.77,3.74l-8.8,16.5Z"/><path class="cls-1" d="M793.25,179.13a12.86,12.86,0,0,1,3.17-8.93,8.78,8.78,0,0,1,6.86-2.91,7.17,7.17,0,0,1,5.37,2.08,7.72,7.72,0,0,1,2,5.62,13.64,13.64,0,0,1-1.28,5.9,9.46,9.46,0,0,1-3.65,4.18,9.29,9.29,0,0,1-5,1.46,8.35,8.35,0,0,1-3.91-.92,6.37,6.37,0,0,1-2.69-2.6A8,8,0,0,1,793.25,179.13Zm3.13-.31a5.59,5.59,0,0,0,1.25,3.94,4.12,4.12,0,0,0,3.17,1.34,5.25,5.25,0,0,0,2-.4,5.71,5.71,0,0,0,1.83-1.24,8.46,8.46,0,0,0,1.45-1.9,12.55,12.55,0,0,0,1.5-5.59,5.53,5.53,0,0,0-1.26-3.87,4.08,4.08,0,0,0-3.16-1.38,5.27,5.27,0,0,0-2.69.7,7.27,7.27,0,0,0-2.19,2.05,9.38,9.38,0,0,0-1.44,3.15A13.39,13.39,0,0,0,796.38,178.82Z"/><path class="cls-1" d="M812.43,186.11l3.85-18.4h2.78l-.78,3.76a12.8,12.8,0,0,1,2.78-3.16,4.57,4.57,0,0,1,2.78-1,5.47,5.47,0,0,1,2.3.68l-1.28,2.91a3,3,0,0,0-1.78-.59,4.81,4.81,0,0,0-3.38,1.84Q818,174,817,178.73l-1.56,7.38Z"/><path class="cls-1" d="M824,186.11l5.31-25.4h3.13l-5.3,25.4Z"/><path class="cls-1" d="M844.55,183.45q-2.68,3.08-5.61,3.08a5.61,5.61,0,0,1-4.36-1.93,8.08,8.08,0,0,1-1.75-5.61,13.61,13.61,0,0,1,1.38-6.14,10.38,10.38,0,0,1,3.45-4.17,7.39,7.39,0,0,1,4.15-1.39A5.56,5.56,0,0,1,847,170.6l2.09-9.89h3.12l-5.31,25.4H844Zm-8.6-5a9.4,9.4,0,0,0,.39,3,3.9,3.9,0,0,0,1.3,1.85,3.4,3.4,0,0,0,2.2.74,4.9,4.9,0,0,0,3.86-2.22,11.39,11.39,0,0,0,2.32-7.28,4.86,4.86,0,0,0-1.14-3.42,3.76,3.76,0,0,0-2.88-1.23,4.18,4.18,0,0,0-2,.51,6,6,0,0,0-1.84,1.7,10.93,10.93,0,0,0-1.53,3.06A10.38,10.38,0,0,0,836,178.4Z"/><path class="cls-1" d="M855.49,164.36l.74-3.55h3.57l-.64,3.12a8.25,8.25,0,0,1-1.83,4.08,4.76,4.76,0,0,1-2.92,1.5l.3-1.37q2-.57,2.72-3.78Zm5.72,0,.74-3.55h3.57l-.65,3.12a8.25,8.25,0,0,1-1.82,4.08,4.76,4.76,0,0,1-2.92,1.5l.28-1.37c1.36-.38,2.28-1.64,2.74-3.78Z"/></g></g></svg>